<?xml version="1.0" encoding="utf-8"?>
<!-- Generator: Adobe Illustrator 25.3.1, SVG Export Plug-In . SVG Version: 6.00 Build 0)  -->
<svg version="1.1" id="图层_1" xmlns="http://www.w3.org/2000/svg" xmlns:xlink="http://www.w3.org/1999/xlink" x="0px" y="0px"
	 viewBox="0 0 7226.8969727 5618.4492188" style="enable-background:new 0 0 7226.8969727 5618.4492188;" xml:space="preserve">
<g transform="translate(0.000000,6334.000000) scale(0.100000,-0.100000)">
	<path d="M60037,63311.9960938c-51-33-88-83-117-158c-35-93-96-505-195-1313c-14-113-50-407-80-655c-30-247-73-592-95-765
		s-53-425-70-560s-32-256-35-270s-23-164-45-335c-65-502-205-1488-271-1905c-350-2216-636-3591-1009-4860
		c-217-739-496-1431-744-1847c-150-250-213-330-441-559c-557-559-1142-986-1785-1303c-247-123-394-183-700-288
		c-332-115-448-178-510-278l0,0c-13.4882812-21.4570312-13.7226562-48.6875-0.609375-70.375l4.609375-7.625c40-70,145-141,288-198
		c29-11,269-88,533-169c1353-419,2081-706,2710-1068c471-271,759-533,1031-937c219-326,423-717,624-1200c75-181,210-528,210-541
		c0-2-1148-4-2550-4h-2550l-288,114c-1429,566-2631,947-3361,1066c-431,70-662,58-881-47c-79-38-109-59-176-127
		c-68-67-89-97-127-176c-25-52-53-126-64-165c-17-68-18-328-18-7826v-7703.6855469c0-33.4863281,9.7265625-66.2519531,28-94.3125
		l0,0c33-50,101-95,177-119c45-14,92-17,250-16c184,1,205,3,366,37c875,186,1924,690,2874,1380c969,704,1599,1385,1719,1858l19,74
		l2301,3c1265,1,2301,1,2301-1c0-7-109-324-148-432c-383-1049-784-1781-1202-2194c-407-401-1080-784-2066-1174
		c-421-167-915-339-1693-592c-331-107-469-177-551-280c-59-74-51-115,40-199c75-68,214-140,400-204c299-103,461-172,740-313
		c486-245,946-564,1425-987c200-177,620-604,706-717c639-842,1159-2465,1609-5020c48-274,65-377,139-845c43-273,117-771,136-920
		c9-69,27-201,40-295c67-481,199-1598,275-2335.0009766c63-606,68-659,95-950c14-151,34-367,45-480c58-592,191-2273,265-3330
		c19-278,42-597,50-710s26-380,40-595c14-214,34-509,45-655c10-146,26-368,35-495c37-545.0004883,81-996.0004883,110-1137.0004883
		c19-89,47-146,97-196c54-55,114-78,161-63c92,31,161,122,191,252c34,143,92,798.0004883,146,1629.0004883c11,173,34,500,50,725
		c16,226,34,489,40,585s20,297,31,445c10,149,33,461,49,695c17,234,48,650,70,925s49,617,60,760c12,143,38,460,60,705s42,474,45,510
		c7,84,79,823,110,1135c259,2561.0009766,584,4719.0009766,946,6295.0009766c381,1658,807,2767,1301,3392c164,208,667,688,998,954
		c584,467,1195,812,1815,1024c238,81,357,141,443,224c48,46,82,103,74,126c-12,37-67,103-115,139c-109,82-195,117-627,256
		c-1692,542-2709,995-3360,1499c-136,105-385,353-482,482c-337,444-650,1067-957,1904c-91,248-151,423-151,444c0,15,171,16,2298,16
		h2299l11-65c54-288,419-777,907-1214c1006-900,2187-1596,3280-1931c378-116,612-156,849-148c179,7,288,48,350,131
		c21,28,21,36,27,870c4,463,7,2327,9,4141.9980469c1,1815,6,4166,9,5225c8,2162,0,1961,85,2135c105,214,320,492,776,1005
		c284,320,398,484,455,655c23,67,26,93,23,155c-8,136-59,200-298,379c-767,574-1898,1135-3075,1525c-624,207-1150,321-1364,294
		c-366-45-990-454-1734-1138c-87-80-191-175-230-212l-72-67l-2297-1c-1264,0-2298,2-2298,4c0,5,114,301,168,436
		c325,809,699,1438,1055,1777c230,218,554,431,977,643c627,314,1340,577,2635,970c350,106,499,181,559,283c32,52,22,80-53,150
		c-71,65-183,121-357,178c-658,215-1206,500-1769,921c-370,277-838,700-1009,913c-480,596-925,1810-1355,3690
		c-143,626-332,1601-466,2400c-24,143-53,314-65,380c-37,217-199,1273-231,1505c-11,80-28,206-40,280c-11,74-38,266-59,426
		c-22,160-46,337-54,395c-24,162-178,1357-251,1949c-125,1012-209,1620-245,1768c-24,99-47,146-92,188
		C60173,63347.9960938,60111,63357.9960938,60037,63311.9960938z M59101,42633.9960938c-147-397-419-984-610-1318
		c-231-402-434-677-673-912c-395-388-1080-774-2053-1158c-435-172-1004-369-1011-351c-2,6-3,810-2,1786c3,1721,4,1776,22,1820
		c38,89,116,165,203,196c31,11,391,13,2095,14h2057L59101,42633.9960938z M65305,42678.9960938c62-32,129-103,158-166l0,0
		c14.4921875-30.9570312,22.03125-64.7109375,22.0859375-98.890625L65488,40673.9960938l2-1792l-42,13c-24,8-115,38-203,69
		c-1434,491-2389,988-2881,1498c-397,413-792,1098-1160,2013c-46,114-84,214-84,222c0,12,301,14,2068,12l2010.1757812-2.9140625
		C65235.4765625,42706.0273438,65272.1796875,42696.71875,65305,42678.9960938L65305,42678.9960938z M55010,37325.9960938
		c650-221,1185-439,1660-676c830-415,1234-754,1637-1372c266-408,591-1072,801-1640l22-57l-2068,2l-2015.5703125,2.9257812
		c-33.8242188,0.0507812-67.1757812,7.9492188-97.4296875,23.0742188l0,0c-74,36-125,87-161,160l0,0
		c-21.7109375,44.0820312-33.0429688,92.5507812-33.125,141.6875l-2.875,1700.3125c-1,976,0,1781,3,1788c3,9,12,11,23,7
		C54787,37401.9960938,54892,37365.9960938,55010,37325.9960938z M65488,35618.9960938l-2.9101562-1740.671875
		c-0.0585938-34.4335938-7.953125-68.3984375-23.0898438-99.328125l0,0c-36-71-96-134-160-165l0,0
		c-37.5039062-18.421875-78.71875-28.03125-120.5039062-28.0898438L63178,33582.9960938l-2068-2l17,42c429,1105,845,1830,1304,2273
		c483,466,1343,917,2594,1359c346,122,440,155,453,155C65488,37410.9960938,65490,37057.9960938,65488,35618.9960938z"/>
	<path d="M7585,53843.9960938c-88-46-105-84-216-470c-297-1037-537-1705-824-2288c-369-752-686-1113-1270-1450
		c-566-326-1250-594-2520-985c-223-68-395-127-452-155c-95-45-173-107-199-157c-14-27-13-32,7-64c25-41,101-101,179-139
		c30-15,194-74,365-132c718-242,1161-444,1560-714c379-257,613-534,684-811c20-77,20-135,21-5445c1-5046-1-5666-25-6143
		c-46-915-135-1682-275-2381.9980469c-291-1452-819-2760-1753-4343c-710-1204-1766-2657-2734-3762c-73-84-133-155-133-158
		c0-8,7-6,185,52c1518,487,3231,1326,4505,2206c1122,775,1932,1532,2746,2567c382,486,738,1006,1046,1530
		c936,1589,1536,3372.9980469,1778,5279.9980469c18,143,44,394,70,680c56,627,60,951,60,5655v4192.1171875
		c0,51.6796875,7.0654297,103.1171875,21,152.8828125l0,0c59,214,199,416,390,560c378,285,913,443,1794,532c91,9,1175,13,4493,15
		c2404,2,4372,0,4372-4s-395-404-879-888c-847-849-880.7558594-868.4882812-901.7558594-926.4882812
		c-28-78-23.1171875-219.4726562,7.9179688-276.1289062c29.4433594-61.1132812-33.421875,5.09375,772.8378906-800.3828125
		c413-413,750-754,750-757s-957-4-2127-3l-2128,3l-255,82c-264,84-792,247-915,281c-38,11-180,52-315,90
		c-1496,429-2588,639-3035,582c-348-43-572-223-605-485c-7-54-10-2009-8-6077l2.9824219-5961.9980469
		c0.0117188-22.7207031,7.3857422-44.8242188,21.0175781-63l0,0c50-68,204-113,386-113c425,0,1199,193,1918,476.9980469
		c794,314,1739,841,2241,1249l67,54l1468-2l1417.1054688-2.8945312
		c34.1835938-0.0664062,67.9355469-7.6132812,98.8945312-22.1054688l0,0c66-30,142-104,167-163l0,0
		c13.8554688-32.328125,21.0097656-67.1328125,21.0253906-102.3085938L19633,27723.9980469l1.9863281-6127.6894531
		c0.0097656-26.4179688,6.9082031-52.375,20.0136719-75.3105469l0,0c53-90,200-120,401-81c303,58,756,246,1199,496
		c761,431,1526,1072,2100,1760c727,872,1149,1795,1216,2665c8,105,10,1171,8,3830l-3.9179688,3610.3144531
		c-0.0546875,49.1289062,11.2109375,97.609375,32.9179688,141.6835938l0,0c36,73,87,124,161,160l0,0
		c30.2558594,15.1289062,63.6035156,23.046875,97.4296875,23.1328125L26002,34128.9960938l1187,2l3-617c3-559,5-621,20-649
		c29-52,83-92,161-115.9980469c68-22,88-23,327-22c953,4,2911,384.9980469,3875,752.9980469c440,168,697,334,781,506l0,0
		c19.0917969,39.5,29.0976562,82.7734375,29.2832031,126.640625L32391,35460.9960938c3,778,6,2430,7,3670c3,2118,6,2374,30,2455
		c29,97,104,214,336,525c212,285,292,404,359,530c72,137,98,221,98,327c1,154-46,218-294,405c-258,194-612,423-977,633
		c-1038,596-2361,1154-2741,1155c-401,1-1098-387-1928-1072l-93-78h-2089c-1149,0-2089,3-2089,7s335,343,744,753
		c804.9394531,784.875,804.9394531,784.875,804.9394531,945.7773438c0,159.3125,0,159.3125-930.9394531,1068.2226562
		c-477,478-868,873-868,878c0,12,13392,10,13625-2c191-10,228-13,565-51c1116-123,2042-442,2608-898c515-416,935-1175,1383-2502
		c32-96,59-181,59-187c0-9-720-12-3022-12c-2868-1-3026-2-3074-18c-84-29-161-81-266-181c-151-143-252-280-347-469
		c-121-241-130-408-29-518c68-74,128-95,293-105c77-4,1144-8,2372-8c2205-1,2233-1,2285-21c73-27,138-86,173-156l0,0
		c19.7226562-38.7851562,30.0117188-81.6757812,30.03125-125.1875L39420,32010.9980469c5-9694,6-10467,21-10495
		c87-157,345-125,804,100c853,418,1766,1258,2402,2210c528,790,831,1577,925,2400c10,87,13,1613,15,7261.9980469l3,7153l2108,2
		l1990.6210938,2.8359375c77.0507812,0.109375,153.5507812,13.0078125,226.3789062,38.1640625l0,0c151,52,352,152,458,228
		c101,71,216,190,265,271c100,168,115,374,42,580c-270,764-1606,2564-2769,3729c-305,305-400,355-661,352c-145-2-242-23-360-79
		c-142-67-232-131-659-473c-164-131-374-294-466-362s-406-303-699-521l-531-397l-262-1c-154,0-263,4-263,9c0,19,152,466,224,659
		c386,1033,768,1670,1211,2024c299,240,751,485,1315,715c374,153,909,337,1560,538c423,130,447,138,536,181c80,39,181,124,190,159
		c8,32-17,76-68,120c-82,71-204,118-678,264c-1318,406-2069,714-2623,1077c-452,296-726,632-1057,1294c-307,613-554,1304-880,2455
		c-64,226-89,279-155,323c-58,39-99,40-157,1c-71-46-91-93-183-414c-321-1125-573-1818-880-2420c-375-734-731-1113-1348-1434
		c-621-324-1501-529-2487-581c-130-6-4175-10-12062-10c-10500,0-11888,2-12055,15c-1568,126-2645,576-3226,1347
		c-453,602-851,1554-1276,3050c-49,174-99,334-110,356c-11,21-36,53-57,71
		C7684,53862.9960938,7639,53872.9960938,7585,53843.9960938z M27004,42681.9960938c63-31,118-86,153-153l0,0
		c18.3886719-34.8046875,28-73.5742188,28-112.9414062v-3345.0585938v-3356.234375c0-32.015625-7.9003906-63.5351562-23-91.765625
		l0,0c-36-67-98-129-161-159l0,0c-36.8261719-18.4140625-77.4355469-28-118.609375-28H22105h-4788.5703125
		c-33.8222656,0-67.1777344,7.875-97.4296875,23l0,0c-75,37-125,87-161,160l0,0
		c-21.7128906,44.0820312-33.0566406,92.546875-33.1640625,141.6875L17022,37052.9960938l-2,1368h4382c2684,0,4415,4,4465,10
		c344,39,391,329,122,763c-147,237-391,467-541,512c-46,13-516,15-4240,15h-4188l2,1373l2.8496094,1303.1171875
		c0.0996094,45.2539062,11.1289062,89.8125,32.1503906,129.8828125l0,0c39,75,115,145,180,167c44,14,459,16,4883,14
		l4780.4394531-1.9765625C26936.3378906,42706.0039062,26971.7597656,42697.7890625,27004,42681.9960938L27004,42681.9960938z"/>
	<path d="M35100,41803.9960938c-107-8-200-23-233-39c-86-41-94-188-31-604l7.8476562-51.3007812
		C34864.5859375,40974.09375,34875,40837.109375,34875,40699.9296875v-4048.9335938c0-4479.9980469,0-4448.9980469-45-5079.9980469
		c-35-474-55-661-116-1070c-45-298-152-834-173-869c-6-9-60,17-192,90c-1444,804-3511,1501-6179,2086c-178,39-233,47-320,48
		c-98,0-110-2-173-32c-78-37-156-111-206-196c-18-31-67-150-107-263c-194-540-325-811-520-1075c-86-117-274-309-378-386
		c-209-155-466-265-716-307c-52-8-165-21-250-27c-131-10-158-15-177-31c-28-26-68-126-83-207c-14-80-14-260,0-343
		c44-250,175-435,348-488c96-30,335-77,562-110c308-46,662-97,825-120c523-73,1085-158,1395-211c477-82,580-100,770-138
		c698-137,1117-239,1695-411c901-269,1548-547,1834-789c30-25,67-63,82-85c27-37,28-40,14-73c-120-286-648-668-1340-970
		c-736-321-1495-555-2850-877c-631-150-859-215-924-265c-73-56,54-85,429-97c560-19,1359,53,2270,202c1299,213,2407,514,3340,906
		c203,86,880,421,1130,561c520,289,945,579,1325,902c184,157,574,546,716,715c363,431,609,808,854,1305c277,560,464,1122,599,1797
		c95,474,148,920,187,1578c17,282,25,9151.9980469,9,9229.9980469c-22,102-91,189-185,232l0,0
		c-32.9453125,15.15625-68.7734375,23.0117188-105.0351562,23.0351562L36710,41806.9960938
		C35849,41806.9960938,35125,41805.9960938,35100,41803.9960938z"/>
	<path d="M44753,38870.9960938c-94-19-188-94-234-187l0,0c-15.78125-31.5664062-24-66.3710938-24-101.6640625v-4221.3359375
		c0-4249.9980469,0-4274.9980469,20-4329.9980469c14-39,30-61,55-78c145-98,739,149,1345,559c343,232,618,460,921,763
		c432,433,721,828,943,1287c197,408.9980469,295,747.9980469,343,1193.9980469c10,95,13,612,13,2490V38554.53125
		c0,40.5976562-7.8085938,80.8164062-23,118.4648438l0,0c-29,73-96,141-170,176l0,0
		c-37.53125,17.78125-78.5390625,27.015625-120.0703125,27.0429688L46340,38876.9960938
		C45490,38877.9960938,44776,38874.9960938,44753,38870.9960938z"/>
	<path d="M16280,31849.9980469c-471-98-1064-235-1540-355c-255-65-324-83-710-189c-1071-293-2137-656-2960-1007
		c-1648-704-2966-1656-3145-2273c-80-273,216-815,720-1321c782-785,1832-1329,3395-1758c648-178,1554-362,2235-455
		c369-51,448-61,575-75c444-51,828-70,1228-63c398,7,527,25,520,70c-8,53-222,119-948,292c-129,31-336,81-460,111
		c-1594,388-2733,835-3350,1313c-181,140-359,347-376,437c-6,34-3,39,57,100c210,212,723,456,1499,712c1107,366,2198,592,4220,877
		c937,132,1295,192,1432,241c58,20,138,83,181,142c47,63,102,181,122,257c56,222,25,536-61,626c-23,24-36,29-78,29
		c-28,0-100,5-161,10c-580,54-1016,313-1343,798c-182,271-283,488-464,997c-75,212-117,295-188,366
		C16572,31841.9980469,16435,31881.9980469,16280,31849.9980469z"/>
</g>
<g>
	<path d="M1238.2573242,4732.7016602v26.1992188c-39.1987305-0.4189453-58.3686523,14.0576172-57.5102539,43.4521484v100.9619141
		c-0.8583984,1.7070312-15.3359375,7.9873047-43.4516602,18.8505859
		c-28.1162109,10.8623047-67.3149414,17.7822266-117.5761719,20.7675781
		c-9.3754883,0.4189453-26.5185547-0.9589844-51.4394531-4.1533203
		c-24.9208984-3.1953125-51.8691406-11.6025391-80.8334961-25.2412109
		c-28.9746094-13.6289062-53.8959961-35.6738281-74.7631836-66.1367188
		c-20.8774414-30.4521484-31.7402344-72.5263672-32.5888672-126.2021484
		c-1.277832-46.4267578,15.7553711-93.5039062,51.1201172-141.21875
		c35.3544922-47.7050781,96.4887695-73.4853516,183.3930664-77.3193359c5.9604492,0,18.8500977,1.4980469,38.6591797,4.4736328
		c19.809082,2.9853516,40.1474609,7.4580078,61.0244141,13.4189453c0.4194336,0.4287109,5.0024414,1.4970703,13.7387695,3.1943359
		c8.7260742,1.7080078,16.7138672,2.5566406,23.9624023,2.5566406c3.4047852,2.1367188,9.1557617-1.9169922,17.2529297-12.1416016
		h17.8920898v127.1611328h-24.9208984c0.8486328-4.6826172-8.5268555-23.0039062-28.1162109-54.9541016
		c-19.5991211-31.9501953-54.3149414-50.2607422-104.1567383-54.9541016c-4.2636719,0-14.3779297,1.8173828-30.3525391,5.4316406
		c-15.9750977,3.6240234-33.5478516,11.5019531-52.7177734,23.6435547
		c-19.1699219,12.140625-35.8935547,30.8916016-50.1611328,56.2314453
		c-14.277832,25.3505859-21.6264648,59.3271484-22.0458984,101.9208984
		c-0.4291992,4.6923828,0.6391602,16.4042969,3.1953125,35.1445312c2.5556641,18.7509766,8.5166016,39.9375,17.8920898,63.5810547
		c9.3652344,23.6425781,24.0620117,44.8398438,44.0908203,63.5800781
		c20.0185547,18.7509766,47.4956055,30.0332031,82.4311523,33.8671875
		c4.6826172,0.4296875,14.2675781-0.2099609,28.7548828-1.9169922c14.4770508-1.6972656,28.5351562-6.5996094,42.1738281-14.6972656
		v-95.8496094c-1.277832-27.2578125-22.3647461-41.7451172-63.2607422-43.4521484v-26.1992188H1238.2573242z"/>
	<path d="M1775.331543,4907.4682617c-23.6430664,18.53125-54.4248047,28.6455078-92.3354492,30.3525391
		c-26.8378906,0.4189453-53.6762695-9.6845703-80.5141602-30.3525391
		c-26.8378906-20.6572266-41.1157227-54.84375-42.8129883-102.5595703
		c-0.8583984-30.671875,10.1142578-62.6220703,32.9086914-95.8496094
		c22.7841797-33.2285156,59.9560547-51.1201172,111.5053711-53.6767578
		c79.6552734,3.4150391,120.5512695,49.4228516,122.6879883,138.0244141h-179.559082
		c-1.277832,4.2636719,2.8754883,20.9873047,12.4604492,50.1611328
		c9.5854492,29.1845703,30.7719727,45.9082031,63.5805664,50.1621094c8.0874023,0.8583984,19.809082-1.8076172,35.1450195-7.9873047
		c15.3359375-6.1708984,32.3696289-20.3388672,51.1201172-42.4941406l15.9750977,14.0585938
		C1815.6884766,4872.2231445,1798.9746094,4888.9370117,1775.331543,4907.4682617z M1694.4980469,4686.0551758
		c-34.0864258,2.9853516-50.7006836,30.8916016-49.8417969,83.7089844h94.5717773
		C1737.0913086,4718.2241211,1722.1845703,4690.3178711,1694.4980469,4686.0551758z"/>
	<path d="M2502.8325195,4914.8168945v21.0869141h-157.1943359v-21.0869141
		c9.7949219,0.8583984,18.2119141-4.2539062,25.2407227-15.3359375
		c7.0288086-11.0732422,10.753418-31.3115234,11.1826172-60.7050781v-57.5097656
		c0.4194336-2.9755859-1.3881836-15.65625-5.4316406-38.0205078c-4.0537109-22.3652344-15.2363281-35.0351562-33.5473633-38.0205078
		c-7.2490234-3.4052734-31.7402344,6.1796875-73.4853516,28.7548828v135.4677734
		c0,32.3789062,13.6289062,47.5058594,40.8964844,45.3691406h6.3896484v21.0869141h-171.2519531v-21.0869141h5.1118164
		c22.574707,0.4296875,34.7158203-15.3359375,36.4233398-47.2861328v-129.078125
		c-0.8588867-11.0722656-4.9023438-19.0595703-12.1411133-23.9619141
		c-7.2485352-4.8925781-13.6386719-7.9882812-19.1699219-9.265625l-13.4189453-2.5566406v-16.6132812l115.6586914-39.6181641
		h11.5019531v61.34375c4.253418-5.9609375,17.6723633-15.8652344,40.2573242-29.7138672
		c22.574707-13.8378906,51.1201172-21.40625,85.6259766-22.6845703
		c15.3359375-1.6972656,30.7719727,4.3740234,46.3276367,18.2119141
		c15.5454102,13.8486328,23.7426758,45.9082031,24.6010742,96.1699219v106.0732422
		C2464.2729492,4902.2563477,2476.4135742,4915.246582,2502.8325195,4914.8168945z"/>
	<path d="M2821.0478516,4856.0288086h21.0869141c-0.8583984,2.5556641,4.1533203,12.2509766,15.0166016,29.0742188
		c10.862793,16.8339844,31.2011719,26.3095703,61.0244141,28.4355469c2.5561523,0.4296875,8.5166016-0.9580078,17.8920898-4.1533203
		c9.3652344-3.1953125,14.6967773-10.5429688,15.9750977-22.0458984c0.4189453-5.53125-2.7758789-11.9208984-9.5849609-19.1699219
		c-6.8193359-7.2382812-21.0874023-18.7402344-42.8129883-34.5058594
		c-5.5415039-2.5556641-18.53125-13.0996094-38.9790039-31.6298828
		c-20.4482422-18.53125-31.9501953-40.1474609-34.5063477-64.8583984
		c-2.5556641-5.5322266,2.765625-20.5478516,15.9750977-45.0498047
		c13.1992188-24.4921875,46.6469727-38.4404297,100.3232422-41.8544922c2.5556641,0,11.1821289,0.7490234,25.8793945,2.2363281
		c14.6967773,1.4980469,31.4106445,5.2216797,50.1611328,11.1826172v73.4853516h-21.0869141
		c-0.4291992-1.6982422-5.8608398-11.0732422-16.2944336-28.1162109
		c-10.4433594-17.0332031-25.8793945-26.6181641-46.3276367-28.7548828c-5.9702148,0-14.3774414,1.3876953-25.2402344,4.1533203
		c-10.862793,2.7753906-16.7236328,9.265625-17.5727539,19.4892578c-0.8583984,1.7070312,1.3779297,7.6679688,6.7099609,17.8916016
		c5.3212891,10.2246094,20.5473633,23.4335938,45.6884766,39.6181641
		c3.4042969,0.859375,16.9331055,10.3339844,40.5761719,28.4355469
		c23.6430664,18.1123047,37.1621094,40.1572266,40.5766602,66.1367188
		c1.277832,8.9462891-3.0952148,23.9628906-13.0996094,45.0498047
		c-10.0141602,21.0869141-35.0449219,32.9082031-75.0825195,35.4638672c-2.1367188,0-10.0141602-0.109375-23.6430664-0.3193359
		c-13.6386719-0.2197266-27.90625-0.7382812-42.8129883-1.5976562c-2.1367188-0.8486328-5.331543-1.6972656-9.5849609-2.5556641
		c-0.8583984,0.8583984-5.5410156,1.7070312-14.0581055,2.5556641h-18.5307617L2821.0478516,4856.0288086z"/>
	<path d="M3501.5761719,4914.8168945h4.4726562v21.0869141h-170.6132812v-21.0869141h10.8632812
		c23.8525391,2.1367188,35.9936523-14.4775391,36.4228516-49.8417969v-294.5791016
		c0.4194336-12.3505859-6.609375-21.9355469-21.0869141-28.7548828l-21.0869141-7.6679688v-15.9755859l108.6298828-31.3105469
		H3463.875v218.5380859c9.3652344-8.0878906,25.7695312-18.2119141,49.203125-30.3525391
		c23.4238281-12.1416016,44.9394531-18.6308594,64.5390625-19.4902344
		c10.2226562-2.1259766,25.6601562,2.7763672,46.3261719,14.6972656
		c20.6582031,11.9316406,32.2695312,46.0078125,34.8261719,102.2402344v90.0986328
		c-1.2773438,38.7695312,9.3652344,56.2324219,31.9511719,52.3984375h5.1113281v21.0869141h-157.1933594v-21.0869141H3543.75
		c21.7265625,2.1367188,33.0078125-14.4775391,33.8671875-49.8417969v-102.2402344
		c0.4179688-4.6826172-1.9179688-14.90625-7.0292969-30.671875c-5.1113281-15.7558594-17.8925781-24.7011719-38.3398438-26.8378906
		c-7.6679688-2.9755859-30.4628906,5.7509766-68.3730469,26.1982422v136.1074219
		C3461.7382812,4898.2026367,3474.3085938,4913.9682617,3501.5761719,4914.8168945z"/>
	<path d="M4007.6591797,4935.9038086v-21.0869141h7.6679688c23.0039062,0.4296875,35.5644531-15.3359375,37.7011719-47.2861328
		v-129.078125c0-11.0722656-7.8876953-20.6572266-23.6435547-28.7548828l-21.7255859-7.0292969v-16.6132812l115.0205078-39.6181641
		h11.5019531v226.8447266c-2.1367188,27.2675781,11.9208984,41.1162109,42.1738281,41.5351562v21.0869141H4007.6591797z
		 M4141.2099609,4541.6411133c-1.7070312,30.671875-18.75,46.8662109-51.1201172,48.5634766
		c-31.9492188-2.1269531-48.9931641-18.7402344-51.1191406-49.8417969
		c1.2773438-31.5205078,18.7402344-48.1347656,52.3974609-49.8417969
		C4123.3183594,4491.3793945,4139.9326172,4508.4125977,4141.2099609,4541.6411133z"/>
	<path d="M4849.8544922,4914.8168945v21.0869141h-157.1943359v-21.0869141
		c9.7949219,0.8583984,18.2119141-4.2539062,25.2402344-15.3359375
		c7.0292969-11.0732422,10.7539062-31.3115234,11.1826172-60.7050781v-57.5097656
		c0.4199219-2.9755859-1.3876953-15.65625-5.4306641-38.0205078c-4.0537109-22.3652344-15.2363281-35.0351562-33.5478516-38.0205078
		c-7.2490234-3.4052734-31.7402344,6.1796875-73.4853516,28.7548828v135.4677734
		c0,32.3789062,13.6289062,47.5058594,40.8964844,45.3691406h6.3896484v21.0869141h-171.2519531v-21.0869141h5.1123047
		c22.5742188,0.4296875,34.7158203-15.3359375,36.4228516-47.2861328v-129.078125
		c-0.8583984-11.0722656-4.9023438-19.0595703-12.140625-23.9619141c-7.2490234-4.8925781-13.6386719-7.9882812-19.1708984-9.265625
		l-13.4189453-2.5566406v-16.6132812l115.6591797-39.6181641h11.5019531v61.34375
		c4.2539062-5.9609375,17.6728516-15.8652344,40.2568359-29.7138672
		c22.5751953-13.8378906,51.1201172-21.40625,85.6259766-22.6845703
		c15.3359375-1.6972656,30.7724609,4.3740234,46.328125,18.2119141
		c15.5458984,13.8486328,23.7421875,45.9082031,24.6015625,96.1699219v106.0732422
		C4811.2949219,4902.2563477,4823.4355469,4915.246582,4849.8544922,4914.8168945z"/>
</g>
</svg>
